<?xml version="1.0" encoding="utf-8"?>
<!-- Generator: Adobe Illustrator 24.1.2, SVG Export Plug-In . SVG Version: 6.00 Build 0)  -->
<svg version="1.1" xmlns="http://www.w3.org/2000/svg" xmlns:xlink="http://www.w3.org/1999/xlink" x="0px" y="0px"
	 viewBox="0 0 444.91 159.63" style="enable-background:new 0 0 444.91 159.63;" xml:space="preserve">
<style type="text/css">
	.st0{display:none;fill:#1B9CD9;}
	.st1{display:none;fill:#FFFFFF;}
	.st2{fill:none;}
	.st3{display:none;}
	.st4{display:inline;fill:none;stroke:#1B9CD9;stroke-width:2;stroke-miterlimit:10;}
	.st5{fill:none;stroke:#1B9CD9;stroke-width:2;stroke-miterlimit:10;}
	.st6{display:inline;fill:#1B9CD9;stroke:#1B9CD9;stroke-width:2;stroke-miterlimit:10;}
	.st7{display:inline;fill:#1B9CD9;stroke:#1B9CD9;stroke-miterlimit:10;}
	.st8{display:inline;fill:#009FE3;stroke:#1B9CD9;stroke-width:2;stroke-miterlimit:10;}
	.st9{display:inline;fill:none;stroke:#1B9CD9;stroke-miterlimit:10;}
	.st10{display:inline;fill:none;stroke:#1B9CD9;stroke-width:4;stroke-miterlimit:10;}
	.st11{display:inline;fill:none;stroke:#FFFFFF;stroke-width:2;stroke-miterlimit:10;}
	.st12{display:inline;}
	.st13{fill:none;stroke:#FFFFFF;stroke-width:2;stroke-miterlimit:10;}
	.st14{display:inline;fill:#FFFFFF;stroke:#FFFFFF;stroke-width:2;stroke-miterlimit:10;}
	.st15{display:inline;fill:#FFFFFF;stroke:#FFFFFF;stroke-miterlimit:10;}
	.st16{display:inline;fill:none;stroke:#FFFFFF;stroke-miterlimit:10;}
	.st17{display:inline;fill:#009FE3;stroke:#FFFFFF;stroke-width:2;stroke-miterlimit:10;}
	.st18{display:inline;fill:none;stroke:#FFFFFF;stroke-width:4;stroke-miterlimit:10;}
	.st19{display:inline;fill:#FFFFFF;}
	.st20{fill:#1B9CD9;}
</style>
<g id="Fondos">
	<rect id="Fondo_Azul" x="0.66" y="0.31" class="st0" width="444.26" height="159.32"/>
	<rect id="Fondo_Blanco_1_" class="st1" width="444.91" height="159.63"/>
	<g id="Fondo_Transparente">
		<rect class="st2" width="444.91" height="159.63"/>
	</g>
</g>
<g id="Marcos">
	<g id="Marcos_Azules">
		<g id="Marco__x23_9" class="st3">
			<line class="st4" x1="27.21" y1="8.14" x2="439.13" y2="8.14"/>
			<line class="st4" x1="439.13" y1="149.68" x2="439.13" y2="7.16"/>
			<circle class="st4" cx="439.13" cy="151.8" r="2.13"/>
			<circle class="st4" cx="7.13" cy="8.14" r="2.13"/>
			<line class="st4" x1="7.13" y1="152.82" x2="7.13" y2="10.27"/>
			<line class="st4" x1="7.13" y1="151.8" x2="424.66" y2="151.8"/>
		</g>
		<g id="Marco__x23_8">
			<line class="st5" x1="7.13" y1="151.8" x2="7.17" y2="10.27"/>
			<circle class="st5" cx="7.17" cy="8.14" r="2.13"/>
			<line class="st5" x1="439.13" y1="8.14" x2="439.13" y2="149.68"/>
			<circle class="st5" cx="439.13" cy="151.8" r="2.13"/>
			<line class="st5" x1="27.21" y1="8.14" x2="422.53" y2="8.14"/>
			<circle class="st5" cx="424.66" cy="8.14" r="2.13"/>
			<line class="st5" x1="424.66" y1="151.8" x2="29.09" y2="151.8"/>
			<circle class="st5" cx="27.21" cy="151.8" r="2.13"/>
		</g>
		<g id="Marco__x23_7" class="st3">
			<line class="st6" x1="7.13" y1="152.74" x2="7.13" y2="7.29"/>
			<line class="st6" x1="439.13" y1="7.21" x2="439.13" y2="152.74"/>
			<line class="st6" x1="7.13" y1="8.14" x2="439.13" y2="8.14"/>
			<line class="st6" x1="439.13" y1="151.8" x2="7.13" y2="151.8"/>
		</g>
		<g id="Marco__x23_6" class="st3">
			<line class="st7" x1="7.55" y1="151.8" x2="7.55" y2="8.14"/>
			<circle class="st7" cx="7.55" cy="8.14" r="2.13"/>
			<line class="st7" x1="439.55" y1="8.14" x2="439.55" y2="151.8"/>
			<circle class="st7" cx="439.55" cy="151.8" r="2.13"/>
			<line class="st7" x1="7.55" y1="8.14" x2="439.55" y2="8.14"/>
			<circle class="st7" cx="439.55" cy="8.14" r="2.13"/>
			<line class="st7" x1="439.55" y1="151.8" x2="7.55" y2="151.8"/>
			<circle class="st7" cx="7.55" cy="151.8" r="2.13"/>
		</g>
		<g id="Marco__x23_5" class="st3">
			<line class="st8" x1="172.3" y1="132.72" x2="172.3" y2="30.48"/>
			<circle class="st4" cx="172.3" cy="28.36" r="2.13"/>
			<line class="st8" x1="265.85" y1="28.36" x2="265.78" y2="130.59"/>
			<circle class="st4" cx="265.85" cy="132.72" r="2.13"/>
			<line class="st8" x1="172.91" y1="17.33" x2="261.34" y2="17.33"/>
			<circle class="st4" cx="263.47" cy="17.33" r="2.13"/>
			<line class="st8" x1="263.47" y1="143.29" x2="175.04" y2="143.29"/>
			<circle class="st4" cx="172.91" cy="143.29" r="2.13"/>
		</g>
		<g id="Marco__x23_4" class="st3">
			<line class="st4" x1="185.85" y1="17.33" x2="263.47" y2="17.33"/>
			<line class="st4" x1="263.47" y1="141.17" x2="263.47" y2="16.4"/>
			<circle class="st4" cx="263.47" cy="143.29" r="2.13"/>
			<circle class="st4" cx="172.91" cy="17.33" r="2.13"/>
			<line class="st4" x1="172.91" y1="144.23" x2="172.91" y2="19.46"/>
			<line class="st4" x1="172.91" y1="143.29" x2="249.27" y2="143.29"/>
		</g>
		<g id="Marco__x23_3" class="st3">
			<line class="st9" x1="185.85" y1="17.33" x2="263.47" y2="17.33"/>
			<line class="st9" x1="263.47" y1="141.17" x2="263.47" y2="16.91"/>
			<circle class="st9" cx="263.47" cy="143.29" r="2.13"/>
			<circle class="st9" cx="172.91" cy="17.33" r="2.13"/>
			<line class="st9" x1="172.91" y1="143.72" x2="172.91" y2="19.46"/>
			<line class="st9" x1="172.91" y1="143.29" x2="249.27" y2="143.29"/>
		</g>
		<g id="Marco__x23_2" class="st3">
			<line class="st8" x1="172.91" y1="132.72" x2="172.91" y2="30.48"/>
			<circle class="st4" cx="172.91" cy="28.36" r="2.13"/>
			<line class="st8" x1="263.47" y1="28.36" x2="263.47" y2="130.59"/>
			<circle class="st4" cx="263.47" cy="132.72" r="2.13"/>
			<line class="st8" x1="172.91" y1="17.33" x2="261.53" y2="17.33"/>
			<circle class="st4" cx="263.47" cy="17.33" r="2.13"/>
			<line class="st8" x1="263.65" y1="143.29" x2="175.04" y2="143.29"/>
			<circle class="st4" cx="172.91" cy="143.29" r="2.13"/>
		</g>
		<g id="Marco__x23_1" class="st3">
			<rect x="172.91" y="17.33" class="st10" width="90.55" height="125.96"/>
		</g>
	</g>
	<g id="Marcos_Blancos" class="st3">
		<g id="Marco__x23_9_1_">
			<line class="st11" x1="27.38" y1="8.14" x2="439.29" y2="8.14"/>
			<line class="st11" x1="439.29" y1="149.68" x2="439.29" y2="7.16"/>
			<circle class="st11" cx="439.29" cy="151.8" r="2.13"/>
			<circle class="st11" cx="7.29" cy="8.14" r="2.13"/>
			<line class="st11" x1="7.29" y1="152.82" x2="7.29" y2="10.27"/>
			<line class="st11" x1="7.29" y1="151.8" x2="424.83" y2="151.8"/>
		</g>
		<g id="Marco__x23_8_1_" class="st12">
			<line class="st13" x1="6.75" y1="151.74" x2="6.79" y2="10.21"/>
			<circle class="st13" cx="6.79" cy="8.08" r="2.13"/>
			<line class="st13" x1="438.75" y1="8.08" x2="438.75" y2="149.62"/>
			<circle class="st13" cx="438.75" cy="151.74" r="2.13"/>
			<line class="st13" x1="26.83" y1="8.08" x2="422.15" y2="8.08"/>
			<circle class="st13" cx="424.28" cy="8.08" r="2.13"/>
			<line class="st13" x1="424.28" y1="151.74" x2="28.71" y2="151.74"/>
			<circle class="st13" cx="26.83" cy="151.74" r="2.13"/>
		</g>
		<g id="Marco__x23_7_1_">
			<line class="st14" x1="7.13" y1="152.74" x2="7.13" y2="7.29"/>
			<line class="st14" x1="439.13" y1="7.21" x2="439.13" y2="152.74"/>
			<line class="st14" x1="7.13" y1="8.14" x2="439.13" y2="8.14"/>
			<line class="st14" x1="439.13" y1="151.8" x2="7.13" y2="151.8"/>
		</g>
		<g id="Marco__x23_6_1_">
			<line class="st15" x1="7.55" y1="151.8" x2="7.55" y2="8.14"/>
			<circle class="st15" cx="7.55" cy="8.14" r="2.13"/>
			<line class="st15" x1="439.55" y1="8.14" x2="439.55" y2="151.8"/>
			<circle class="st15" cx="439.55" cy="151.8" r="2.13"/>
			<line class="st15" x1="7.55" y1="8.14" x2="439.55" y2="8.14"/>
			<circle class="st15" cx="439.55" cy="8.14" r="2.13"/>
			<line class="st15" x1="439.55" y1="151.8" x2="7.55" y2="151.8"/>
			<circle class="st15" cx="7.55" cy="151.8" r="2.13"/>
		</g>
		<g id="Marco__x23_5_1_">
			<line class="st11" x1="172.45" y1="132.85" x2="172.45" y2="30.61"/>
			<circle class="st11" cx="172.45" cy="28.48" r="2.13"/>
			<line class="st11" x1="266" y1="28.48" x2="265.93" y2="130.72"/>
			<circle class="st11" cx="266" cy="132.85" r="2.13"/>
			<line class="st11" x1="173.06" y1="17.46" x2="261.49" y2="17.46"/>
			<circle class="st11" cx="263.62" cy="17.46" r="2.13"/>
			<line class="st11" x1="263.62" y1="143.42" x2="175.19" y2="143.42"/>
			<circle class="st11" cx="173.06" cy="143.42" r="2.13"/>
		</g>
		<g id="Marco__x23_4_1_">
			<line class="st11" x1="185.85" y1="17.33" x2="263.47" y2="17.33"/>
			<line class="st11" x1="263.47" y1="141.17" x2="263.47" y2="16.4"/>
			<circle class="st11" cx="263.47" cy="143.29" r="2.13"/>
			<circle class="st11" cx="172.91" cy="17.33" r="2.13"/>
			<line class="st11" x1="172.91" y1="144.23" x2="172.91" y2="19.46"/>
			<line class="st11" x1="172.91" y1="143.29" x2="249.27" y2="143.29"/>
		</g>
		<g id="Marco__x23_3_1_">
			<line class="st16" x1="185.85" y1="17.06" x2="263.47" y2="17.06"/>
			<line class="st16" x1="263.47" y1="140.89" x2="263.47" y2="16.63"/>
			<circle class="st16" cx="263.47" cy="143.02" r="2.13"/>
			<circle class="st16" cx="172.91" cy="17.06" r="2.13"/>
			<line class="st16" x1="172.91" y1="143.44" x2="172.91" y2="19.18"/>
			<line class="st16" x1="172.91" y1="143.02" x2="249.27" y2="143.02"/>
		</g>
		<g id="Marco__x23_2_1_">
			<line class="st17" x1="172.79" y1="132.88" x2="172.79" y2="30.64"/>
			<circle class="st11" cx="172.79" cy="28.52" r="2.13"/>
			<line class="st17" x1="263.35" y1="28.52" x2="263.35" y2="130.75"/>
			<circle class="st11" cx="263.35" cy="132.88" r="2.13"/>
			<line class="st17" x1="172.79" y1="17.5" x2="261.41" y2="17.5"/>
			<circle class="st11" cx="263.35" cy="17.5" r="2.13"/>
			<line class="st17" x1="263.53" y1="143.45" x2="174.92" y2="143.45"/>
			<circle class="st11" cx="172.79" cy="143.45" r="2.13"/>
		</g>
		<g id="Marco__x23_1_1_">
			<rect x="172.91" y="17.33" class="st18" width="90.55" height="125.96"/>
		</g>
	</g>
</g>
<g id="Guias" class="st3">
	<g id="Guias_ancho_logo">
	</g>
	<g id="Guias_Logo">
	</g>
	<g id="Guias_alto_S">
	</g>
	<g id="Guias_S">
	</g>
</g>
<g id="Textos">
	<g id="Nombre_Empresa_Blanco" class="st3">
		<g class="st12">
			<g class="st3">
				<path class="st19" d="M27.19,29.44h10.13v10.13H27.19V29.44z M27.19,58.69h10.13v72.98H27.19V58.69z"/>
				<path class="st19" d="M61.23,58.69h10.13v72.98H61.23V58.69z M106.93,87.45c0-6.47-1.54-11.48-4.61-15.05
					c-3.07-3.56-7.44-5.34-13.11-5.34c-5.67,0-10.07,1.61-13.18,4.82c-3.12,3.21-4.68,7.75-4.68,13.61l-1.48-14.06
					c2.44-4.87,5.63-8.39,9.56-10.55c3.94-2.16,8.53-3.23,13.78-3.23c5.02,0,9.32,1.16,12.9,3.48s6.3,5.71,8.16,10.16
					c1.85,4.45,2.78,9.82,2.78,16.1v44.3h-10.13V87.45z M152.63,87.45c0-6.47-1.55-11.48-4.64-15.05
					c-3.09-3.56-7.45-5.34-13.08-5.34c-5.67,0-10.07,1.73-13.18,5.2c-3.12,3.47-4.68,8.34-4.68,14.63l-4.29-10.55
					c2.34-6.05,5.6-10.68,9.77-13.89c4.17-3.21,9.19-4.82,15.05-4.82c5.3,0,9.83,1.16,13.61,3.48c3.77,2.32,6.64,5.71,8.61,10.16
					c1.97,4.45,2.95,9.82,2.95,16.1v44.3h-10.13V87.45z"/>
				<path class="st19" d="M202.69,131.33c-4.41-0.94-8.52-2.34-12.34-4.22c-3.82-1.87-7.4-4.22-10.72-7.03l6.12-8.02
					c4.26,3.75,8.98,6.56,14.13,8.44c5.16,1.88,10.76,2.81,16.8,2.81c8.76,0,15.55-1.73,20.36-5.2c4.8-3.47,7.21-8.34,7.21-14.63
					v-0.07c0-3.89-1.04-7.01-3.13-9.35c-2.09-2.34-4.78-4.1-8.09-5.27c-3.3-1.17-7.56-2.25-12.76-3.23
					c-0.14-0.05-0.29-0.08-0.46-0.11c-0.17-0.02-0.34-0.06-0.53-0.11l-2.04-0.42c-7.17-1.36-12.91-2.78-17.23-4.25
					c-4.31-1.48-7.98-3.98-11-7.52c-3.02-3.54-4.54-8.45-4.54-14.73v-0.07c0-6.33,1.42-11.73,4.25-16.21
					c2.84-4.48,6.97-7.89,12.41-10.23c5.44-2.34,11.98-3.52,19.62-3.52c3.61,0,7.18,0.4,10.72,1.2c3.54,0.8,7.03,1.98,10.48,3.55
					c3.45,1.57,6.86,3.55,10.23,5.94l-5.98,7.95c-4.41-3.09-8.72-5.4-12.94-6.93c-4.22-1.52-8.39-2.29-12.52-2.29
					c-8.34,0-14.81,1.76-19.41,5.27c-4.59,3.52-6.89,8.46-6.89,14.84v0.07c0,3.84,1.15,6.88,3.45,9.11c2.3,2.23,5.14,3.88,8.54,4.96
					c3.4,1.08,8.05,2.2,13.96,3.38c0.19,0.05,0.39,0.09,0.6,0.14c0.21,0.05,0.43,0.09,0.67,0.14c0.28,0.05,0.55,0.11,0.81,0.18
					c0.26,0.07,0.53,0.13,0.81,0.18c6.42,1.31,11.77,2.81,16.03,4.5c4.26,1.69,7.82,4.32,10.65,7.91c2.84,3.59,4.25,8.43,4.25,14.52
					v0.14c0,6.23-1.48,11.57-4.43,16s-7.23,7.8-12.83,10.13c-5.6,2.32-12.36,3.48-20.29,3.48
					C211.76,132.73,207.1,132.26,202.69,131.33z"/>
				<path class="st19" d="M284.96,129.01c-4.5-2.48-7.93-6.1-10.3-10.86c-2.37-4.76-3.55-10.49-3.55-17.19V89.07
					c0-6.61,1.18-12.27,3.55-16.98c2.37-4.71,5.8-8.3,10.3-10.76s9.91-3.69,16.24-3.69s11.74,1.23,16.24,3.69s7.93,6.05,10.3,10.76
					c2.37,4.71,3.55,10.37,3.55,16.98v12.09c0,6.66-1.18,12.34-3.55,17.05c-2.37,4.71-5.8,8.31-10.3,10.79
					c-4.5,2.49-9.91,3.73-16.24,3.73S289.46,131.49,284.96,129.01z M315.93,117.51c3.49-3.87,5.24-9.32,5.24-16.35V89.07
					c0-6.98-1.75-12.4-5.24-16.24c-3.49-3.84-8.43-5.77-14.8-5.77c-6.33,0-11.23,1.92-14.7,5.77c-3.47,3.84-5.2,9.26-5.2,16.24
					v12.09c0,7.03,1.73,12.48,5.2,16.35c3.47,3.87,8.37,5.8,14.7,5.8C307.51,123.31,312.44,121.38,315.93,117.51z"/>
				<path class="st19" d="M346.06,58.69h36.49v8.72h-36.49V58.69z M353.8,48.78c0-6.47,1.39-11.31,4.18-14.52
					c2.79-3.21,7-4.82,12.62-4.82h11.95v9.42h-10.27c-2.81,0-4.91,0.81-6.29,2.43c-1.38,1.62-2.07,4.07-2.07,7.35v83.04H353.8V48.78
					z"/>
				<path class="st19" d="M391.69,58.69h32.91v8.72h-32.91V58.69z M403.33,127.14c-2.74-3.26-4.11-8.07-4.11-14.45V37.46h10.13
					v75.38c0,3.14,0.7,5.55,2.11,7.24s3.49,2.53,6.26,2.53h6.89v9.42h-8.3C410.4,132.03,406.07,130.4,403.33,127.14z"/>
			</g>
		</g>
	</g>
	<g id="Nombre_Empresa_Azul">
		<g>
			<g>
				<path class="st20" d="M27.19,29.44h10.13v10.13H27.19V29.44z M27.19,58.69h10.13v72.98H27.19V58.69z"/>
				<path class="st20" d="M61.23,58.69h10.13v72.98H61.23V58.69z M106.93,87.45c0-6.47-1.54-11.48-4.61-15.05
					c-3.07-3.56-7.44-5.34-13.11-5.34c-5.67,0-10.07,1.61-13.18,4.82c-3.12,3.21-4.68,7.75-4.68,13.61l-1.48-14.06
					c2.44-4.87,5.63-8.39,9.56-10.55c3.94-2.16,8.53-3.23,13.78-3.23c5.02,0,9.32,1.16,12.9,3.48s6.3,5.71,8.16,10.16
					c1.85,4.45,2.78,9.82,2.78,16.1v44.3h-10.13V87.45z M152.63,87.45c0-6.47-1.55-11.48-4.64-15.05
					c-3.09-3.56-7.45-5.34-13.08-5.34c-5.67,0-10.07,1.73-13.18,5.2c-3.12,3.47-4.68,8.34-4.68,14.63l-4.29-10.55
					c2.34-6.05,5.6-10.68,9.77-13.89c4.17-3.21,9.19-4.82,15.05-4.82c5.3,0,9.83,1.16,13.61,3.48c3.77,2.32,6.64,5.71,8.61,10.16
					c1.97,4.45,2.95,9.82,2.95,16.1v44.3h-10.13V87.45z"/>
				<path class="st20" d="M202.69,131.33c-4.41-0.94-8.52-2.34-12.34-4.22c-3.82-1.87-7.4-4.22-10.72-7.03l6.12-8.02
					c4.26,3.75,8.98,6.56,14.13,8.44c5.16,1.88,10.76,2.81,16.8,2.81c8.76,0,15.55-1.73,20.36-5.2c4.8-3.47,7.21-8.34,7.21-14.63
					v-0.07c0-3.89-1.04-7.01-3.13-9.35c-2.09-2.34-4.78-4.1-8.09-5.27c-3.3-1.17-7.56-2.25-12.76-3.23
					c-0.14-0.05-0.29-0.08-0.46-0.11c-0.17-0.02-0.34-0.06-0.53-0.11l-2.04-0.42c-7.17-1.36-12.91-2.78-17.23-4.25
					c-4.31-1.48-7.98-3.98-11-7.52c-3.02-3.54-4.54-8.45-4.54-14.73v-0.07c0-6.33,1.42-11.73,4.25-16.21
					c2.84-4.48,6.97-7.89,12.41-10.23c5.44-2.34,11.98-3.52,19.62-3.52c3.61,0,7.18,0.4,10.72,1.2c3.54,0.8,7.03,1.98,10.48,3.55
					c3.45,1.57,6.86,3.55,10.23,5.94l-5.98,7.95c-4.41-3.09-8.72-5.4-12.94-6.93c-4.22-1.52-8.39-2.29-12.52-2.29
					c-8.34,0-14.81,1.76-19.41,5.27c-4.59,3.52-6.89,8.46-6.89,14.84v0.07c0,3.84,1.15,6.88,3.45,9.11c2.3,2.23,5.14,3.88,8.54,4.96
					c3.4,1.08,8.05,2.2,13.96,3.38c0.19,0.05,0.39,0.09,0.6,0.14c0.21,0.05,0.43,0.09,0.67,0.14c0.28,0.05,0.55,0.11,0.81,0.18
					c0.26,0.07,0.53,0.13,0.81,0.18c6.42,1.31,11.77,2.81,16.03,4.5c4.26,1.69,7.82,4.32,10.65,7.91c2.84,3.59,4.25,8.43,4.25,14.52
					v0.14c0,6.23-1.48,11.57-4.43,16s-7.23,7.8-12.83,10.13c-5.6,2.32-12.36,3.48-20.29,3.48
					C211.76,132.73,207.1,132.26,202.69,131.33z"/>
				<path class="st20" d="M284.96,129.01c-4.5-2.48-7.93-6.1-10.3-10.86c-2.37-4.76-3.55-10.49-3.55-17.19V89.07
					c0-6.61,1.18-12.27,3.55-16.98c2.37-4.71,5.8-8.3,10.3-10.76s9.91-3.69,16.24-3.69s11.74,1.23,16.24,3.69s7.93,6.05,10.3,10.76
					c2.37,4.71,3.55,10.37,3.55,16.98v12.09c0,6.66-1.18,12.34-3.55,17.05c-2.37,4.71-5.8,8.31-10.3,10.79
					c-4.5,2.49-9.91,3.73-16.24,3.73S289.46,131.49,284.96,129.01z M315.93,117.51c3.49-3.87,5.24-9.32,5.24-16.35V89.07
					c0-6.98-1.75-12.4-5.24-16.24c-3.49-3.84-8.43-5.77-14.8-5.77c-6.33,0-11.23,1.92-14.7,5.77c-3.47,3.84-5.2,9.26-5.2,16.24
					v12.09c0,7.03,1.73,12.48,5.2,16.35c3.47,3.87,8.37,5.8,14.7,5.8C307.51,123.31,312.44,121.38,315.93,117.51z"/>
				<path class="st20" d="M346.06,58.69h36.49v8.72h-36.49V58.69z M353.8,48.78c0-6.47,1.39-11.31,4.18-14.52
					c2.79-3.21,7-4.82,12.62-4.82h11.95v9.42h-10.27c-2.81,0-4.91,0.81-6.29,2.43c-1.38,1.62-2.07,4.07-2.07,7.35v83.04H353.8V48.78
					z"/>
				<path class="st20" d="M391.69,58.69h32.91v8.72h-32.91V58.69z M403.33,127.14c-2.74-3.26-4.11-8.07-4.11-14.45V37.46h10.13
					v75.38c0,3.14,0.7,5.55,2.11,7.24s3.49,2.53,6.26,2.53h6.89v9.42h-8.3C410.4,132.03,406.07,130.4,403.33,127.14z"/>
			</g>
		</g>
	</g>
</g>
</svg>
